<?xml version="1.0" standalone="no"?>
<!DOCTYPE svg PUBLIC "-//W3C//DTD SVG 20010904//EN"
 "http://www.w3.org/TR/2001/REC-SVG-20010904/DTD/svg10.dtd">
<svg version="1.0" xmlns="http://www.w3.org/2000/svg"
 width="510.000000pt" height="510.000000pt" viewBox="0 0 510.000000 510.000000"
 preserveAspectRatio="xMidYMid meet">
<metadata>
Created by potrace 1.11, written by Peter Selinger 2001-2013
</metadata>
<g transform="translate(0.000000,510.000000) scale(0.100000,-0.100000)"
fill="#000000" stroke="none">
<path d="M305 3811 c-48 -22 -79 -54 -100 -103 -13 -33 -15 -170 -15 -1165 0
-1075 1 -1130 19 -1168 22 -48 54 -79 103 -100 33 -13 274 -15 2238 -15 1964
0 2205 2 2238 15 49 21 81 52 103 100 18 38 19 93 19 1170 0 1077 -1 1132 -19
1170 -22 48 -54 79 -103 100 -33 13 -274 15 -2240 15 -2120 0 -2204 -1 -2243
-19z m2755 -771 l0 -100 -105 0 -105 0 0 100 0 100 105 0 105 0 0 -100z m420
0 l0 -100 -105 0 -105 0 0 100 0 100 105 0 105 0 0 -100z m-1324 -300 c82 -42
134 -104 166 -200 21 -62 22 -84 26 -492 l3 -428 -100 0 -100 0 -3 413 -3 413
-26 49 c-38 75 -89 100 -199 99 -97 0 -165 -23 -270 -90 l-60 -39 0 -422 0
-423 -95 0 -95 0 0 565 0 565 95 0 95 0 0 -60 0 -61 61 42 c65 44 150 84 208
99 20 5 79 8 133 7 88 -2 102 -6 164 -37z m1125 30 c186 -36 336 -189 385
-396 22 -92 22 -285 0 -378 -50 -209 -197 -360 -385 -396 -124 -23 -272 -5
-373 46 -70 36 -159 127 -198 203 -95 190 -96 480 -2 668 101 200 327 299 573
253z"/>
<path d="M3067 2596 c-110 -31 -184 -115 -213 -242 -24 -108 -16 -306 15 -387
33 -84 77 -137 146 -172 52 -27 69 -30 145 -30 76 0 93 3 145 30 68 35 126
103 151 177 38 115 35 331 -6 441 -28 74 -87 139 -151 166 -64 28 -168 36
-232 17z"/>
</g>
</svg>
